<?xml version="1.0" encoding="UTF-8" standalone="no"?>
<svg
   width="56"
   height="56.999001"
   version="1"
   id="svg22"
   sodipodi:docname="qmem.svg"
   inkscape:version="1.2.2 (b0a8486541, 2022-12-01)"
   xmlns:inkscape="http://www.inkscape.org/namespaces/inkscape"
   xmlns:sodipodi="http://sodipodi.sourceforge.net/DTD/sodipodi-0.dtd"
   xmlns="http://www.w3.org/2000/svg"
   xmlns:svg="http://www.w3.org/2000/svg">
  <defs
     id="defs26">
    <rect
       x="5.5031583"
       y="12.680514"
       width="48.042923"
       height="29.610954"
       id="rect362" />
    <rect
       x="2.5417156"
       y="22.244755"
       width="71.242012"
       height="37.83115"
       id="rect813" />
  </defs>
  <sodipodi:namedview
     id="namedview24"
     pagecolor="#ffffff"
     bordercolor="#999999"
     borderopacity="1"
     inkscape:showpageshadow="0"
     inkscape:pageopacity="0"
     inkscape:pagecheckerboard="0"
     inkscape:deskcolor="#d1d1d1"
     showgrid="false"
     inkscape:zoom="15.097088"
     inkscape:cx="-12.088424"
     inkscape:cy="38.848551"
     inkscape:window-width="3840"
     inkscape:window-height="2112"
     inkscape:window-x="0"
     inkscape:window-y="0"
     inkscape:window-maximized="1"
     inkscape:current-layer="svg22" />
  <path
     id="rect2"
     style="opacity:0.2;stroke-width:0.822596"
     d="m 15.525888,6.7531293 c 13.273087,0 29.623245,9.8752277 36.659547,22.1417667 7.036301,12.266538 2.015351,22.141768 -11.257737,22.141768 -13.273088,0 -29.623247,-9.87523 -36.6595477,-22.141768 C -2.7681511,16.628357 2.2527999,6.7531293 15.525888,6.7531293 Z" />
  <path
     id="path1981"
     style="fill:#c6afe9;fill-opacity:1;stroke-width:0.822596"
     d="m 15.072276,5.9623378 c 13.273088,0 29.623246,9.8752282 36.659548,22.1417672 7.036301,12.266538 2.01535,22.141766 -11.257738,22.141766 -13.273088,0 -29.623246,-9.875228 -36.6595471,-22.141766 C -3.221763,15.837566 1.7991881,5.9623378 15.072276,5.9623378 Z" />
  <path
     id="path1993"
     style="fill:#8d5fd3;fill-opacity:1;stroke-width:0.822596"
     d="m 15.072288,5.96236 c -0.506825,0 -0.997443,0.019519 -1.479993,0.047899 0.482842,-0.028452 0.972767,-0.047899 1.479993,-0.047899 z m -1.92294,0.079833 c -0.385243,0.030006 -0.76263,0.068316 -1.131562,0.1163268 0.368596,-0.048037 0.746634,-0.086289 1.131562,-0.1163268 z M 11.73993,6.1927331 c -0.451325,0.064874 -0.889996,0.1434358 -1.315885,0.2349343 0.425673,-0.091587 0.864724,-0.1699922 1.315885,-0.2349343 z M 10.080073,6.5097803 C 9.7647432,6.5840601 9.456116,6.6650156 9.1554816,6.7538382 9.4560056,6.6648994 9.7648198,6.5841586 10.080073,6.5097803 Z M 8.7880459,6.867884 C 8.4025728,6.9918431 8.0257209,7.1236991 7.6659136,7.2716057 8.0254211,7.1235601 8.4028392,6.9919681 8.7880459,6.867884 Z M 7.6659136,7.2716057 C 7.2729126,7.4331574 6.8990649,7.6116622 6.537193,7.8007782 6.89873,7.6114848 7.273212,7.4333185 7.6659136,7.2716057 Z M 6.4056141,7.8714866 C 6.0662237,8.0538979 5.7398755,8.2469728 5.428987,8.453119 5.739393,8.2469049 6.0667135,8.0539786 6.4056141,7.8714866 Z M 5.3895359,8.4804906 C 4.7165704,8.9306745 4.1115144,9.435048 3.5766614,9.9904568 4.1108198,9.4345692 4.7171936,8.9311066 5.3895359,8.4804906 Z M 3.5424443,10.026951 C -0.27659297,14.031016 -0.4792685,20.619362 3.8135946,28.103204 10.849889,40.369731 27.201276,50.24633 40.47435,50.24633 c 11.391487,0 16.696329,-7.276499 13.525732,-17.093178 0.519543,1.620761 0.807822,3.172926 0.878731,4.634819 L 0.64566266,17.656612 C 0.6583191,14.618203 1.6582188,12.006787 3.5424443,10.026951 Z M 54.000082,33.153152 c -0.122665,-0.379792 -0.25719,-0.762453 -0.405391,-1.149582 0.147315,0.387001 0.283697,0.769948 0.405391,1.149582 z m -2.268347,-5.049948 c 0.233676,0.407373 0.452469,0.811768 0.659289,1.213448 -0.207184,-0.401751 -0.425656,-0.80615 -0.659289,-1.213448 z m 0.853523,1.610327 c 0.142976,0.288598 0.283469,0.576872 0.412678,0.862186 -0.129633,-0.285261 -0.269442,-0.573697 -0.412678,-0.862186 z m 0.54396,1.160986 c 0.144449,0.329874 0.282305,0.658 0.408482,0.983074 -0.126949,-0.325303 -0.263376,-0.653015 -0.408482,-0.983074 z" />
  <path
     style="opacity:0.1;fill:#ffffff;stroke-width:0.822596"
     d="m 15.072276,5.9623378 c -13.2731351,0 -18.2942651,9.8755792 -11.2579382,22.1421622 0.051507,0.08979 0.1112807,0.177164 0.1674271,0.265658 C -2.6130296,16.348908 2.4433336,6.7531293 15.525888,6.7531293 c 13.082554,0 29.147531,9.5957787 36.343934,21.6170287 C 51.824474,28.281664 51.783988,28.194297 51.73248,28.1045 44.696151,15.837917 28.345411,5.9623378 15.072276,5.9623378 Z"
     id="path6" />
  <path
     style="opacity:0.1;stroke-width:4.9248"
     d="M 0.65220182,18.413876 54.910276,38.556639 c 10e-4,-0.25138 -0.0033,-0.504713 -0.01584,-0.761826 L 0.63636137,17.652051 c -0.0011,0.251742 0.003292,0.504334 0.0158405,0.761825 z"
     id="path1859" />
  <g
     aria-label="QBEEF"
     id="text360"
     style="font-weight:500;font-size:13.3333px;font-family:'Noto Sans';-inkscape-font-specification:'Noto Sans, Medium';white-space:pre;shape-inside:url(#rect362);opacity:0.2"
     transform="translate(1.4293795,7.7031643)">
    <path
       d="m 15.170548,20.038005 q 0,1.706662 -0.666664,2.919992 -0.653332,1.213331 -1.973329,1.693329 l 2.279994,2.426661 h -1.973328 l -1.813329,-2.146661 q -0.06667,0 -0.146666,0 -0.06667,0.01333 -0.133333,0.01333 -1.5066629,0 -2.493327,-0.613332 -0.9866642,-0.613332 -1.466663,-1.719995 -0.4799988,-1.106664 -0.4799988,-2.586661 0,-1.466663 0.4799988,-2.559993 0.4933321,-1.093331 1.4799963,-1.706662 0.9866641,-0.613332 2.4933267,-0.613332 1.466663,0 2.439994,0.613332 0.986664,0.599998 1.479996,1.706662 0.493332,1.09333 0.493332,2.573327 z m -7.3466476,0 q 0,1.706662 0.7066649,2.693326 0.7066648,0.986664 2.2133277,0.986664 1.519996,0 2.213328,-0.986664 0.693331,-0.986664 0.693331,-2.693326 0,-1.706663 -0.693331,-2.679994 -0.679999,-0.97333 -2.199995,-0.97333 -1.5199959,0 -2.2266607,0.97333 -0.7066649,0.973331 -0.7066649,2.679994 z"
       id="path468" />
    <path
       d="m 20.023868,15.29135 q 1.813329,0 2.74666,0.533332 0.946664,0.533332 0.946664,1.839995 0,0.839998 -0.453332,1.399997 -0.439999,0.546665 -1.266664,0.693331 v 0.06667 q 0.559999,0.09333 1.013331,0.346666 0.466666,0.253332 0.733332,0.719998 0.266665,0.453332 0.266665,1.199997 0,1.29333 -0.906664,2.013328 -0.906664,0.706665 -2.453327,0.706665 H 17.237208 V 15.29135 Z m 0.239999,3.973323 q 1.119997,0 1.53333,-0.359999 0.426665,-0.359999 0.426665,-1.066664 0,-0.706665 -0.506665,-1.013331 -0.506665,-0.319999 -1.613329,-0.319999 h -1.426663 v 2.759993 z m -1.586662,1.173331 v 3.173325 h 1.746662 q 1.146664,0 1.599996,-0.453332 0.466665,-0.453332 0.466665,-1.199997 0,-0.679998 -0.479998,-1.093331 -0.466666,-0.426665 -1.679996,-0.426665 z"
       id="path470" />
    <path
       d="M 31.34384,24.811326 H 25.983853 V 15.29135 h 5.359987 v 1.226664 h -3.91999 v 2.719993 h 3.67999 v 1.21333 h -3.67999 v 3.119992 h 3.91999 z"
       id="path472" />
    <path
       d="M 38.770477,24.811326 H 33.410491 V 15.29135 h 5.359986 v 1.226664 h -3.91999 v 2.719993 h 3.679991 v 1.21333 h -3.679991 v 3.119992 h 3.91999 z"
       id="path474" />
    <path
       d="M 42.263792,24.811326 H 40.837129 V 15.29135 h 5.359986 v 1.226664 h -3.933323 v 3.106658 h 3.67999 v 1.226664 h -3.67999 z"
       id="path476" />
  </g>
  <g
     aria-label="QBEEF"
     id="g489"
     style="font-weight:500;font-size:13.3333px;font-family:'Noto Sans';-inkscape-font-specification:'Noto Sans, Medium';white-space:pre;shape-inside:url(#rect362);fill:#ffffff"
     transform="translate(1.5226716,6.9927704)">
    <path
       d="m 15.170548,20.038005 q 0,1.706662 -0.666664,2.919992 -0.653332,1.213331 -1.973329,1.693329 l 2.279994,2.426661 h -1.973328 l -1.813329,-2.146661 q -0.06667,0 -0.146666,0 -0.06667,0.01333 -0.133333,0.01333 -1.5066629,0 -2.493327,-0.613332 -0.9866642,-0.613332 -1.466663,-1.719995 -0.4799988,-1.106664 -0.4799988,-2.586661 0,-1.466663 0.4799988,-2.559993 0.4933321,-1.093331 1.4799963,-1.706662 0.9866641,-0.613332 2.4933267,-0.613332 1.466663,0 2.439994,0.613332 0.986664,0.599998 1.479996,1.706662 0.493332,1.09333 0.493332,2.573327 z m -7.3466476,0 q 0,1.706662 0.7066649,2.693326 0.7066648,0.986664 2.2133277,0.986664 1.519996,0 2.213328,-0.986664 0.693331,-0.986664 0.693331,-2.693326 0,-1.706663 -0.693331,-2.679994 -0.679999,-0.97333 -2.199995,-0.97333 -1.5199959,0 -2.2266607,0.97333 -0.7066649,0.973331 -0.7066649,2.679994 z"
       id="path479" />
    <path
       d="m 20.023868,15.29135 q 1.813329,0 2.74666,0.533332 0.946664,0.533332 0.946664,1.839995 0,0.839998 -0.453332,1.399997 -0.439999,0.546665 -1.266664,0.693331 v 0.06667 q 0.559999,0.09333 1.013331,0.346666 0.466666,0.253332 0.733332,0.719998 0.266665,0.453332 0.266665,1.199997 0,1.29333 -0.906664,2.013328 -0.906664,0.706665 -2.453327,0.706665 H 17.237208 V 15.29135 Z m 0.239999,3.973323 q 1.119997,0 1.53333,-0.359999 0.426665,-0.359999 0.426665,-1.066664 0,-0.706665 -0.506665,-1.013331 -0.506665,-0.319999 -1.613329,-0.319999 h -1.426663 v 2.759993 z m -1.586662,1.173331 v 3.173325 h 1.746662 q 1.146664,0 1.599996,-0.453332 0.466665,-0.453332 0.466665,-1.199997 0,-0.679998 -0.479998,-1.093331 -0.466666,-0.426665 -1.679996,-0.426665 z"
       id="path481" />
    <path
       d="M 31.34384,24.811326 H 25.983853 V 15.29135 h 5.359987 v 1.226664 h -3.91999 v 2.719993 h 3.67999 v 1.21333 h -3.67999 v 3.119992 h 3.91999 z"
       id="path483" />
    <path
       d="M 38.770477,24.811326 H 33.410491 V 15.29135 h 5.359986 v 1.226664 h -3.91999 v 2.719993 h 3.679991 v 1.21333 h -3.679991 v 3.119992 h 3.91999 z"
       id="path485" />
    <path
       d="M 42.263792,24.811326 H 40.837129 V 15.29135 h 5.359986 v 1.226664 h -3.933323 v 3.106658 h 3.67999 v 1.226664 h -3.67999 z"
       id="path487" />
  </g>
</svg>
